{"title":"Regresa A Mi (Unbreak My Heart) - Il Divo (HQ Music Video) [mild","uid":5788398,"size":72571883,"categoryP":"video","categoryS":"music_videos","magnet":"?xt=urn:btih:2a05082129a5a47cb66e335d3368c5a3ddcff9b7&amp;dn=Regresa+A+Mi+%28Unbreak+My+Heart%29+-+Il+Divo+%28HQ+Music+Video%29+%5Bmild&amp;tr=udp%3A%2F%2Ftracker.openbittorrent.com%3A80&amp;tr=udp%3A%2F%2Fopen.demonii.com%3A1337&amp;tr=udp%3A%2F%2Ftracker.coppersurfer.tk%3A6969&amp;tr=udp%3A%2F%2Fexodus.desync.com%3A6969","seeders":1,"leechers":0,"uploader":"mildpoison","files":3,"time":1282696278,"description":"                     Regresa A MÃƒÂ­ (Unbreak My Heart)- Il Divo\n\n\n\nAbout The Artist\n\nIl Divo (&quot;divine male performer&quot; in Italian) is a multinational operatic pop vocal group created by music manager, executive, and reality TV star Simon Cowell. Formed in the United Kingdom, they are also signed to Cowell's record label, Syco Music. Il Divo is a group of four male singers: Spanish baritone Carlos MarÃƒÂ­n, Swiss tenor Urs BÃƒÂ¼hler, American tenor David Miller, and French pop singer SÃƒÂ©bastien Izambard.\n\nIl Divo was formed in 2004 after promoter Simon Cowell, best known as a judge on the television talent show American Idol, heard operatic singers Andrea Bocelli and Sarah Brightman singing the duet &quot;Con te partiro,&quot; and noted their popularity with the audience. Cowell saw that audiences were eager to hear this style of popular operatic singing, and he decided to create a multinational quartet of male singers who combined a powerful operatic singing style with handsome good looks, a combination he felt was sure to succeed.\n\n\nDescription\n\nRegresa A Mi is the song from the self-titled debut album of Il Divo. This song is the spanish version of &quot;Unbreak My Heart&quot; of R&amp;b singer Tony Braxton. The album hit the #1 slot on both Amazon.com and BarnesandNoble.com after a career-defining appearance on The Oprah Winfrey Show on 5 April 2005, where they performed &quot;Regresa a Mi&quot;.\n\n\nPlot\n\nThis Video features the group members seperating from their families and love to go for a life changing live performance and gaining a great fame.\n\n\nLyrics\n\nNo me abandones asÃƒÂ­\nhablando sÃƒÂ³lo de ti.\nVen y devuelveme al fin\nla sonrisa que se fue.\nUna vez mÃƒÂ¡s tocar tu piel\nel hondo suspirar.\nRecuperemos lo que se ha perdido.\n\nRegresa a mÃƒÂ­,\nquÃƒÂ©reme otra vez,\nborra el dolor\nque al irte me dio\ncuando te separaste de mÃƒÂ­.\nDime que sÃƒÂ­\nYa no quiero llorar,\nregresa a mÃƒÂ­.\n\nExtraÃƒÂ±o el amor que se fue,\nextraÃƒÂ±a la dicha tambiÃƒÂ©n.\nQuiero que vengas a mÃƒÂ­\ny me vuelvas s querer.\nNo puedo mÃƒÂ¡s si tÃƒÂº no estÃƒÂ¡s,\ntienes que llegar.\nMi vida se apaga sin ti a mi lado.\n\nRegresa a mÃƒÂ­,\nquÃƒÂ©reme otra vez,\nborra el dolor\nque al irte me dio\ncuando te separaste de mÃƒÂ­.\nDime que sÃƒÂ­\nYa no quiero llorar,\nregresa a mÃƒÂ­.\n\nNo me abandonas asÃƒÂ­,\nhablando sÃƒÂ³lo de ti.\nDevuelveme la pasiÃƒÂ³n de tus brazos.\n\nRegresa a mÃƒÂ­,\nquÃƒÂ©reme otra vez,\nborra el dolor\nque al irte me dio\ncuando te separaste de mÃƒÂ­.\nDime que sÃƒÂ­\nYa no quiero llorar,\nregresa a mÃƒÂ­.\n\n\nDetails\n\nGeneral\nFormat                           : Matroska\nFile size                        : 69.2 MiB\nDuration                         : 4mn 50s\nOverall bit rate                 : 1,998 Kbps\n\nVideo\nFormat                           : AVC\nDuration                         : 4mn 50s\nBit rate                         : 1,800 Kbps\nWidth                            : 720 pixels\nHeight                           : 400 pixels\nDisplay aspect ratio             : 16:9\nFrame rate                       : 25.000 fps\nScan type                        : Progressive\nStream size                      : 61.2 MiB (88%)\n\nAudio\nFormat                           : AC-3\nDuration                         : 4mn 50s\nBit rate mode                    : Constant\nBit rate                         : 192 Kbps\nChannel(s)                       : 2 channels\nChannel positions                : Front: L R\nSampling rate                    : 48.0 KHz\nStream size                      : 6.65 MiB (10%)","torrent":{"xt":"urn:btih:2a05082129a5a47cb66e335d3368c5a3ddcff9b7","amp;dn":"Regresa+A+Mi+%28Unbreak+My+Heart%29+-+Il+Divo+%28HQ+Music+Video%29+%5Bmild","amp;tr":["udp%3A%2F%2Ftracker.openbittorrent.com%3A80","udp%3A%2F%2Fopen.demonii.com%3A1337","udp%3A%2F%2Ftracker.coppersurfer.tk%3A6969","udp%3A%2F%2Fexodus.desync.com%3A6969"],"infoHash":"2a05082129a5a47cb66e335d3368c5a3ddcff9b7","infoHashBuffer":{"type":"Buffer","data":[42,5,8,33,41,165,164,124,182,110,51,93,51,104,197,163,221,207,249,183]},"announce":[],"urlList":[]}}